<svg width="1920" height="900" viewBox="0 0 1920 900" fill="none" xmlns="http://www.w3.org/2000/svg">
<path d="M-6.67624 86.3813L8.69661 73.5223L48.1494 91.0878L33.5817 104.305L-6.67624 86.3813Z" fill="black" stroke="black"/>
<path d="M54.5313 113.632L69.9041 100.773L109.357 118.339L94.7892 131.556L54.5313 113.632Z" fill="black" stroke="black"/>
<path d="M115.739 140.884L131.112 128.025L170.564 145.59L155.997 158.808L115.739 140.884Z" fill="black" stroke="black"/>
<path d="M176.946 168.135L192.319 155.276L231.772 172.842L217.204 186.059L176.946 168.135Z" fill="black" stroke="black"/>
<path d="M238.154 195.387L253.527 182.528L292.979 200.093L278.412 213.311L238.154 195.387Z" fill="black" stroke="black"/>
<path d="M299.361 222.638L314.734 209.779L354.187 227.345L339.619 240.562L299.361 222.638Z" fill="black" stroke="black"/>
<path d="M360.569 249.889L375.942 237.03L415.394 254.596L400.827 267.813L360.569 249.889Z" fill="black" stroke="black"/>
<path d="M421.776 277.141L437.149 264.282L476.602 281.847L462.034 295.065L421.776 277.141Z" fill="black" stroke="black"/>
<path d="M482.984 304.392L498.357 291.533L537.81 309.099L523.242 322.316L482.984 304.392Z" fill="black" stroke="black"/>
<path d="M544.191 331.644L559.564 318.785L599.017 336.35L584.449 349.568L544.191 331.644Z" fill="black" stroke="black"/>
<path d="M605.399 358.895L620.772 346.035L660.225 363.601L645.657 376.818L605.399 358.895Z" fill="black" stroke="black"/>
<path d="M666.606 386.146L681.979 373.287L721.432 390.852L706.864 404.07L666.606 386.146Z" fill="black" stroke="black"/>
<path d="M727.814 413.397L743.187 400.538L782.64 418.104L768.072 431.321L727.814 413.397Z" fill="black" stroke="black"/>
<path d="M789.022 440.649L804.394 427.79L843.847 445.355L829.279 458.573L789.022 440.649Z" fill="black" stroke="black"/>
<path d="M850.229 467.9L865.602 455.041L905.055 472.607L890.487 485.824L850.229 467.9Z" fill="black" stroke="black"/>
<path d="M911.437 495.151L926.81 482.292L966.263 499.858L951.695 513.075L911.437 495.151Z" fill="black" stroke="black"/>
<path d="M972.645 522.403L988.017 509.544L1027.47 527.109L1012.9 540.327L972.645 522.403Z" fill="black" stroke="black"/>
<path d="M1033.85 549.654L1049.22 536.795L1088.68 554.361L1074.11 567.578L1033.85 549.654Z" fill="black" stroke="black"/>
<path d="M1095.06 576.906L1110.43 564.047L1149.89 581.612L1135.32 594.83L1095.06 576.906Z" fill="black" stroke="black"/>
<path d="M1156.27 604.157L1171.64 591.298L1211.09 608.863L1196.53 622.081L1156.27 604.157Z" fill="black" stroke="black"/>
<path d="M1217.47 631.408L1232.85 618.549L1272.3 636.115L1257.73 649.332L1217.47 631.408Z" fill="black" stroke="black"/>
<path d="M1278.68 658.66L1294.06 645.801L1333.51 663.366L1318.94 676.584L1278.68 658.66Z" fill="black" stroke="black"/>
<path d="M1339.89 685.911L1355.26 673.052L1394.72 690.618L1380.15 703.835L1339.89 685.911Z" fill="black" stroke="black"/>
<path d="M1401.1 713.162L1416.47 700.303L1455.92 717.869L1441.36 731.086L1401.1 713.162Z" fill="black" stroke="black"/>
<path d="M1462.3 740.414L1477.68 727.555L1517.13 745.12L1502.56 758.338L1462.3 740.414Z" fill="black" stroke="black"/>
<path d="M1523.51 767.665L1538.89 754.806L1578.34 772.371L1563.77 785.589L1523.51 767.665Z" fill="black" stroke="black"/>
<path d="M1584.72 794.916L1600.09 782.057L1639.55 799.623L1624.98 812.84L1584.72 794.916Z" fill="black" stroke="black"/>
<path d="M1645.93 822.168L1661.3 809.309L1700.75 826.874L1686.19 840.092L1645.93 822.168Z" fill="black" stroke="black"/>
<path d="M1707.13 849.419L1722.51 836.56L1761.96 854.125L1747.39 867.343L1707.13 849.419Z" fill="black" stroke="black"/>
<path d="M1768.34 876.67L1783.72 863.811L1823.17 881.377L1808.6 894.594L1768.34 876.67Z" fill="black" stroke="black"/>
<path d="M1829.55 903.922L1844.92 891.063L1884.38 908.628L1869.81 921.846L1829.55 903.922Z" fill="black" stroke="black"/>
<path d="M1926.68 813.619L1911.3 826.478L1871.85 808.913L1886.42 795.695L1926.68 813.619Z" fill="black" stroke="black"/>
<path d="M1865.47 786.368L1850.1 799.227L1810.64 781.662L1825.21 768.444L1865.47 786.368Z" fill="black" stroke="black"/>
<path d="M1804.26 759.117L1788.89 771.976L1749.44 754.41L1764 741.193L1804.26 759.117Z" fill="black" stroke="black"/>
<path d="M1743.05 731.865L1727.68 744.724L1688.23 727.159L1702.8 713.941L1743.05 731.865Z" fill="black" stroke="black"/>
<path d="M1681.85 704.614L1666.47 717.473L1627.02 699.907L1641.59 686.69L1681.85 704.614Z" fill="black" stroke="black"/>
<path d="M1620.64 677.362L1605.27 690.221L1565.81 672.656L1580.38 659.438L1620.64 677.362Z" fill="black" stroke="black"/>
<path d="M1559.43 650.111L1544.06 662.97L1504.61 645.405L1519.17 632.187L1559.43 650.111Z" fill="black" stroke="black"/>
<path d="M1498.22 622.86L1482.85 635.719L1443.4 618.153L1457.97 604.936L1498.22 622.86Z" fill="black" stroke="black"/>
<path d="M1437.02 595.608L1421.64 608.467L1382.19 590.902L1396.76 577.684L1437.02 595.608Z" fill="black" stroke="black"/>
<path d="M1375.81 568.357L1360.44 581.216L1320.98 563.65L1335.55 550.433L1375.81 568.357Z" fill="black" stroke="black"/>
<path d="M1314.6 541.106L1299.23 553.965L1259.77 536.399L1274.34 523.182L1314.6 541.106Z" fill="black" stroke="black"/>
<path d="M1253.39 513.855L1238.02 526.714L1198.57 509.148L1213.14 495.931L1253.39 513.855Z" fill="black" stroke="black"/>
<path d="M1192.19 486.603L1176.81 499.462L1137.36 481.897L1151.93 468.679L1192.19 486.603Z" fill="black" stroke="black"/>
<path d="M1130.98 459.352L1115.61 472.211L1076.15 454.645L1090.72 441.428L1130.98 459.352Z" fill="black" stroke="black"/>
<path d="M1069.77 432.1L1054.4 444.959L1014.94 427.394L1029.51 414.176L1069.77 432.1Z" fill="black" stroke="black"/>
<path d="M1008.56 404.849L993.19 417.708L953.737 400.143L968.305 386.925L1008.56 404.849Z" fill="black" stroke="black"/>
<path d="M947.355 377.598L931.983 390.457L892.53 372.891L907.098 359.674L947.355 377.598Z" fill="black" stroke="black"/>
<path d="M886.148 350.346L870.775 363.205L831.322 345.64L845.89 332.422L886.148 350.346Z" fill="black" stroke="black"/>
<path d="M824.94 323.095L809.568 335.954L770.115 318.388L784.682 305.171L824.94 323.095Z" fill="black" stroke="black"/>
<path d="M763.733 295.844L748.36 308.703L708.907 291.137L723.475 277.92L763.733 295.844Z" fill="black" stroke="black"/>
<path d="M702.525 268.592L687.153 281.451L647.7 263.886L662.267 250.668L702.525 268.592Z" fill="black" stroke="black"/>
<path d="M641.318 241.341L625.945 254.2L586.492 236.634L601.06 223.417L641.318 241.341Z" fill="black" stroke="black"/>
<path d="M580.11 214.089L564.737 226.948L525.285 209.383L539.852 196.165L580.11 214.089Z" fill="black" stroke="black"/>
<path d="M518.903 186.838L503.53 199.697L464.077 182.132L478.645 168.914L518.903 186.838Z" fill="black" stroke="black"/>
<path d="M457.695 159.587L442.322 172.446L402.87 154.88L417.437 141.663L457.695 159.587Z" fill="black" stroke="black"/>
<path d="M396.487 132.335L381.114 145.194L341.662 127.629L356.229 114.411L396.487 132.335Z" fill="black" stroke="black"/>
<path d="M335.28 105.084L319.907 117.943L280.454 100.378L295.022 87.16L335.28 105.084Z" fill="black" stroke="black"/>
<path d="M274.072 77.8325L258.699 90.6916L219.247 73.1261L233.814 59.9086L274.072 77.8325Z" fill="black" stroke="black"/>
<path d="M212.865 50.5816L197.492 63.4406L158.039 45.8751L172.607 32.6576L212.865 50.5816Z" fill="black" stroke="black"/>
<path d="M151.657 23.3301L136.284 36.1891L96.8316 18.6236L111.399 5.40612L151.657 23.3301Z" fill="black" stroke="black"/>
<path d="M90.4497 -3.92136L75.0768 8.93766L35.6241 -8.62784L50.1917 -21.8453L90.4497 -3.92136Z" fill="black" stroke="black"/>
</svg>
