<svg width="60" height="60" viewBox="0 0 60 60" fill="none" xmlns="http://www.w3.org/2000/svg">
<mask id="mask0_308_96" style="mask-type:alpha" maskUnits="userSpaceOnUse" x="0" y="0" width="60" height="60">
<path fill-rule="evenodd" clip-rule="evenodd" d="M0 30C0 13.4315 13.4315 0 30 0C46.5685 0 60 13.4315 60 30C60 46.5685 46.5685 60 30 60C13.4315 60 0 46.5685 0 30Z" fill="white"/>
</mask>
<g mask="url(#mask0_308_96)">
<path fill-rule="evenodd" clip-rule="evenodd" d="M0 30C0 13.4315 13.4315 0 30 0C46.5685 0 60 13.4315 60 30C60 46.5685 46.5685 60 30 60C13.4315 60 0 46.5685 0 30Z" fill="white"/>
<path fill-rule="evenodd" clip-rule="evenodd" d="M26 30C26 28.9009 26.7909 28 27.7926 28C28.7944 28 29.6028 28.9009 29.5852 30C29.5852 31.0991 28.7944 32 27.7926 32C26.8084 32 26 31.0991 26 30ZM32.4141 30C32.4141 28.9009 33.2049 28 34.2067 28C35.2084 28 35.9993 28.9009 35.9993 30C35.9993 31.0991 35.2084 32 34.2067 32C33.2225 32 32.4141 31.0991 32.4141 30Z" fill="#7289DA"/>
<path fill-rule="evenodd" clip-rule="evenodd" d="M18.6314 13H42.3686C44.3703 13 46 14.61 46 16.605V48L42.1914 44.675L40.048 42.715L37.7806 40.6325L38.7194 43.87H18.6314C16.6297 43.87 15 42.26 15 40.265V16.605C15 14.61 16.6297 13 18.6314 13ZM34.3623 34.4374C34.8937 35.1024 35.5314 35.8549 35.5314 35.8549C39.4463 35.7324 40.952 33.1949 40.952 33.1949C40.952 27.5599 38.4011 22.9924 38.4011 22.9924C35.8503 21.1024 33.4234 21.1549 33.4234 21.1549L33.1754 21.4349C36.1869 22.3449 37.5863 23.6574 37.5863 23.6574C35.744 22.6599 33.9371 22.1699 32.2543 21.9774C30.9789 21.8374 29.7566 21.8724 28.676 22.0124C28.5832 22.0124 28.5039 22.0258 28.4146 22.0408C28.4016 22.043 28.3884 22.0452 28.3749 22.0474C27.7549 22.0999 26.2491 22.3274 24.3537 23.1499C23.6983 23.4474 23.3086 23.6574 23.3086 23.6574C23.3086 23.6574 24.7789 22.2749 27.9674 21.3649L27.7903 21.1549C27.7903 21.1549 25.3634 21.1024 22.8126 22.9924C22.8126 22.9924 20.2617 27.5599 20.2617 33.1949C20.2617 33.1949 21.7497 35.7324 25.6646 35.8549C25.6646 35.8549 26.32 35.0674 26.8514 34.4024C24.6017 33.7374 23.7514 32.3374 23.7514 32.3374C23.7514 32.3374 23.9286 32.4599 24.2474 32.6349C24.2651 32.6524 24.2829 32.6699 24.3183 32.6874C24.3449 32.7049 24.3714 32.7181 24.398 32.7312C24.4246 32.7443 24.4511 32.7574 24.4777 32.7749C24.9206 33.0199 25.3634 33.2124 25.7709 33.3699C26.4971 33.6499 27.3651 33.9299 28.3749 34.1224C29.7034 34.3674 31.2623 34.4549 32.9629 34.1399C33.7954 33.9999 34.6457 33.7549 35.5314 33.3874C36.1514 33.1599 36.8423 32.8274 37.5686 32.3549C37.5686 32.3549 36.6829 33.7899 34.3623 34.4374Z" fill="#7289DA"/>
</g>
</svg>
