<svg width="21" height="24" viewBox="0 0 21 24" fill="none" xmlns="http://www.w3.org/2000/svg">
<path fill-rule="evenodd" clip-rule="evenodd" d="M7.45117 11.661C7.45117 10.9164 7.98692 10.3062 8.66553 10.3062C9.34414 10.3062 9.89179 10.9164 9.87988 11.661C9.87988 12.4055 9.34414 13.0158 8.66553 13.0158C7.99882 13.0158 7.45117 12.4055 7.45117 11.661ZM11.7962 11.661C11.7962 10.9164 12.3319 10.3062 13.0105 10.3062C13.6891 10.3062 14.2249 10.9164 14.2249 11.661C14.2249 12.4055 13.6891 13.0158 13.0105 13.0158C12.3438 13.0158 11.7962 12.4055 11.7962 11.661Z" fill="white"/>
<path fill-rule="evenodd" clip-rule="evenodd" d="M2.46 0.14502H18.54C19.896 0.14502 21 1.23566 21 2.58712V23.8547L18.42 21.6023L16.968 20.2745L15.432 18.8638L16.068 21.057H2.46C1.104 21.057 0 19.9663 0 18.6149V2.58712C0 1.23566 1.104 0.14502 2.46 0.14502ZM13.1164 14.6673C13.4764 15.1178 13.9084 15.6275 13.9084 15.6275C16.5604 15.5445 17.5804 13.8256 17.5804 13.8256C17.5804 10.0083 15.8524 6.91423 15.8524 6.91423C14.1244 5.6339 12.4804 5.66947 12.4804 5.66947L12.3124 5.85915C14.3524 6.4756 15.3004 7.36471 15.3004 7.36471C14.0524 6.68899 12.8284 6.35705 11.6884 6.22665C10.8244 6.13181 9.99639 6.15552 9.26439 6.25036C9.20154 6.25036 9.14783 6.25939 9.0873 6.26957C9.07849 6.27105 9.06954 6.27256 9.06039 6.27407C8.64039 6.30963 7.62039 6.46374 6.33639 7.02092C5.89239 7.22245 5.62839 7.36471 5.62839 7.36471C5.62839 7.36471 6.62439 6.42818 8.78439 5.81173L8.66439 5.66947C8.66439 5.66947 7.02039 5.6339 5.29239 6.91423C5.29239 6.91423 3.56439 10.0083 3.56439 13.8256C3.56439 13.8256 4.57239 15.5445 7.22439 15.6275C7.22439 15.6275 7.66839 15.0941 8.02839 14.6436C6.50439 14.1931 5.92839 13.2447 5.92839 13.2447C5.92839 13.2447 6.04839 13.3277 6.26439 13.4462C6.27639 13.4581 6.28839 13.47 6.31239 13.4818C6.33039 13.4937 6.34839 13.5026 6.36639 13.5114C6.38439 13.5203 6.40239 13.5292 6.42039 13.5411C6.72039 13.7071 7.02039 13.8375 7.29639 13.9441C7.78839 14.1338 8.37639 14.3235 9.06039 14.4539C9.96039 14.6199 11.0164 14.6791 12.1684 14.4658C12.7324 14.3709 13.3084 14.205 13.9084 13.956C14.3284 13.8019 14.7964 13.5766 15.2884 13.2566C15.2884 13.2566 14.6884 14.2287 13.1164 14.6673Z" fill="white"/>
</svg>
