<svg width="40" height="40" viewBox="0 0 40 40" fill="none" xmlns="http://www.w3.org/2000/svg">
<path fill-rule="evenodd" clip-rule="evenodd" d="M20 40C31.0457 40 40 31.0457 40 20C40 8.95431 31.0457 0 20 0C8.95431 0 0 8.95431 0 20C0 31.0457 8.95431 40 20 40ZM16.334 29.1613C16.8204 29.1613 17.0427 28.9449 17.3114 28.6833L17.334 28.6613L19.7326 26.3289L24.7345 30.0244C25.6543 30.5319 26.3181 30.2691 26.5472 29.1705L29.828 13.71C30.1639 12.3633 29.3147 11.7525 28.4348 12.1519L9.16977 19.5804C7.85475 20.1079 7.86242 20.8415 8.93007 21.1684L13.8739 22.7115L25.3194 15.4906C25.8597 15.163 26.3556 15.3391 25.9486 15.7004L16.6791 24.0654L16.6743 24.0625L16.334 29.1613Z" fill="white"/>
</svg>
