<svg width="40" height="40" viewBox="0 0 40 40" fill="none" xmlns="http://www.w3.org/2000/svg">
<path fill-rule="evenodd" clip-rule="evenodd" d="M20 0C8.95431 0 0 8.95431 0 20C0 31.0457 8.95431 40 20 40C31.0457 40 40 31.0457 40 20C40 8.95431 31.0457 0 20 0ZM15.6053 9.40038C16.7431 9.3486 17.1067 9.33594 20.0036 9.33594H20.0003C22.8981 9.33594 23.2603 9.3486 24.3981 9.40038C25.5337 9.45238 26.3092 9.63216 26.9892 9.89594C27.6915 10.1682 28.2848 10.5326 28.8781 11.126C29.4715 11.7189 29.8359 12.314 30.1093 13.0155C30.3715 13.6938 30.5515 14.4689 30.6048 15.6044C30.6559 16.7422 30.6693 17.1058 30.6693 20.0027C30.6693 22.8996 30.6559 23.2623 30.6048 24.4001C30.5515 25.5352 30.3715 26.3106 30.1093 26.989C29.8359 27.6904 29.4715 28.2855 28.8781 28.8784C28.2855 29.4717 27.6912 29.837 26.9899 30.1095C26.3112 30.3733 25.5352 30.553 24.3997 30.605C23.2619 30.6568 22.8994 30.6695 20.0023 30.6695C17.1056 30.6695 16.7422 30.6568 15.6044 30.605C14.4691 30.553 13.6938 30.3733 13.0151 30.1095C12.314 29.837 11.7189 29.4717 11.1262 28.8784C10.5331 28.2855 10.1686 27.6904 9.89594 26.9888C9.63239 26.3106 9.45261 25.5354 9.40038 24.3999C9.34883 23.2621 9.33594 22.8996 9.33594 20.0027C9.33594 17.1058 9.34927 16.742 9.40016 15.6042C9.45127 14.4691 9.63127 13.6938 9.89572 13.0153C10.1691 12.314 10.5335 11.7189 11.1268 11.126C11.7197 10.5328 12.3149 10.1684 13.0164 9.89594C13.6946 9.63216 14.4698 9.45238 15.6053 9.40038Z" fill="white"/>
<path fill-rule="evenodd" clip-rule="evenodd" d="M19.0435 11.2527C19.2293 11.2524 19.4292 11.2525 19.6449 11.2526L20.0004 11.2527C22.8484 11.2527 23.186 11.2629 24.3107 11.314C25.3507 11.3616 25.9151 11.5353 26.2911 11.6813C26.7889 11.8747 27.1438 12.1058 27.5169 12.4791C27.8903 12.8525 28.1214 13.208 28.3151 13.7058C28.4611 14.0814 28.6352 14.6458 28.6825 15.6858C28.7336 16.8103 28.7447 17.1481 28.7447 19.9948C28.7447 22.8415 28.7336 23.1792 28.6825 24.3037C28.6349 25.3437 28.4611 25.9082 28.3151 26.2837C28.1218 26.7815 27.8903 27.1359 27.5169 27.5091C27.1436 27.8824 26.7891 28.1135 26.2911 28.3068C25.9156 28.4535 25.3507 28.6268 24.3107 28.6744C23.1862 28.7255 22.8484 28.7366 20.0004 28.7366C17.1521 28.7366 16.8146 28.7255 15.6901 28.6744C14.6501 28.6264 14.0857 28.4526 13.7094 28.3066C13.2117 28.1133 12.8561 27.8822 12.4828 27.5088C12.1094 27.1355 11.8783 26.7808 11.6845 26.2828C11.5385 25.9073 11.3645 25.3428 11.3172 24.3028C11.2661 23.1783 11.2559 22.8406 11.2559 19.9921C11.2559 17.1436 11.2661 16.8076 11.3172 15.6832C11.3647 14.6431 11.5385 14.0787 11.6845 13.7027C11.8779 13.2049 12.1094 12.8493 12.4828 12.476C12.8561 12.1027 13.2117 11.8716 13.7094 11.6778C14.0854 11.5311 14.6501 11.3578 15.6901 11.31C16.6741 11.2656 17.0555 11.2522 19.0435 11.25V11.2527ZM25.6941 13.021C24.9874 13.021 24.4141 13.5936 24.4141 14.3005C24.4141 15.0072 24.9874 15.5805 25.6941 15.5805C26.4008 15.5805 26.9741 15.0072 26.9741 14.3005C26.9741 13.5938 26.4008 13.0205 25.6941 13.0205V13.021ZM14.5234 19.9964C14.5234 16.9713 16.976 14.5187 20.0011 14.5186C23.0262 14.5186 25.4782 16.9712 25.4782 19.9964C25.4782 23.0215 23.0264 25.4731 20.0013 25.4731C16.9761 25.4731 14.5234 23.0215 14.5234 19.9964Z" fill="white"/>
<path fill-rule="evenodd" clip-rule="evenodd" d="M20.0009 16.4453C21.9645 16.4453 23.5565 18.0371 23.5565 20.0009C23.5565 21.9645 21.9645 23.5565 20.0009 23.5565C18.0371 23.5565 16.4453 21.9645 16.4453 20.0009C16.4453 18.0371 18.0371 16.4453 20.0009 16.4453V16.4453Z" fill="white"/>
</svg>
