<svg width="40" height="40" viewBox="0 0 40 40" fill="none" xmlns="http://www.w3.org/2000/svg">
<path fill-rule="evenodd" clip-rule="evenodd" d="M20 0C8.95431 0 0 8.95431 0 20C0 31.0457 8.95431 40 20 40C31.0457 40 40 31.0457 40 20C40 8.95431 31.0457 0 20 0ZM19.443 16.9532L19.401 16.2611C19.2751 14.4675 20.3803 12.8292 22.129 12.1936C22.7725 11.9676 23.8637 11.9394 24.5772 12.1371C24.8569 12.2218 25.3885 12.5043 25.7663 12.7585L26.4518 13.2246L27.2072 12.9845C27.6269 12.8574 28.1865 12.6456 28.4383 12.5043C28.6761 12.3772 28.8859 12.3066 28.8859 12.349C28.8859 12.5891 28.3683 13.4082 27.9347 13.8602C27.3471 14.4957 27.515 14.5522 28.7041 14.1285C29.4175 13.8884 29.4315 13.8884 29.2916 14.1568C29.2077 14.298 28.774 14.7923 28.3124 15.2443C27.529 16.021 27.487 16.1058 27.487 16.7555C27.487 17.7582 27.0113 19.8485 26.5357 20.9925C25.6543 23.1392 23.7658 25.3566 21.8772 26.4723C19.2191 28.04 15.6798 28.4355 12.7 27.5175C11.7067 27.2067 10 26.4158 10 26.2746C10 26.2322 10.5176 26.1757 11.1471 26.1616C12.4622 26.1334 13.7772 25.7662 14.8964 25.1165L15.6518 24.6645L14.7844 24.3679C13.5534 23.9442 12.4482 22.9697 12.1684 22.0517C12.0844 21.7551 12.1124 21.741 12.8958 21.741L13.7072 21.7269L13.0218 21.402C12.2104 20.9925 11.4689 20.3004 11.1052 19.5942C10.8394 19.0858 10.5036 17.8006 10.6016 17.7017C10.6295 17.6593 10.9233 17.7441 11.2591 17.8571C12.2243 18.2102 12.3503 18.1254 11.7907 17.5322C10.7414 16.4589 10.4197 14.8629 10.9233 13.3517L11.1611 12.6738L12.0844 13.5918C13.973 15.442 16.1974 16.5436 18.7435 16.8684L19.443 16.9532Z" fill="white"/>
</svg>
