<svg width="40" height="40" viewBox="0 0 40 40" fill="none" xmlns="http://www.w3.org/2000/svg">
<path fill-rule="evenodd" clip-rule="evenodd" d="M20 0C8.95431 0 0 8.95431 0 20C0 31.0457 8.95431 40 20 40C31.0457 40 40 31.0457 40 20C40 8.95431 31.0457 0 20 0ZM12.421 8.67188H28.2457C29.5802 8.67188 30.6667 9.74521 30.6667 11.0752V32.0052L28.1276 29.7885L26.6987 28.4819L25.187 27.0935L25.813 29.2519H12.421C11.0865 29.2519 10 28.1785 10 26.8485V11.0752C10 9.74521 11.0865 8.67188 12.421 8.67188Z" fill="white"/>
<path fill-rule="evenodd" clip-rule="evenodd" d="M23.6896 23.9017C23.6896 23.9017 23.2644 23.4 22.9101 22.9567C24.4572 22.525 25.0477 21.5683 25.0477 21.5683C24.5635 21.8833 24.1029 22.105 23.6896 22.2567C23.0991 22.5017 22.5322 22.665 21.9772 22.7583C20.8435 22.9683 19.8042 22.91 18.9185 22.7467C18.2454 22.6183 17.6667 22.4317 17.1825 22.245C16.9109 22.14 16.6157 22.0117 16.3204 21.8483C16.3027 21.8367 16.285 21.8279 16.2673 21.8192C16.2496 21.8104 16.2319 21.8017 16.2141 21.79C16.1905 21.7783 16.1787 21.7667 16.1669 21.755C15.9543 21.6383 15.8362 21.5567 15.8362 21.5567C15.8362 21.5567 16.4031 22.49 17.9029 22.9333C17.5486 23.3767 17.1117 23.9017 17.1117 23.9017C14.5018 23.82 13.5098 22.1283 13.5098 22.1283C13.5098 18.3717 15.2103 15.3267 15.2103 15.3267C16.9109 14.0667 18.5288 14.1017 18.5288 14.1017L18.6469 14.2417C16.5212 14.8483 15.541 15.77 15.541 15.77C15.541 15.77 15.8008 15.63 16.2378 15.4317C17.5014 14.8833 18.5052 14.7317 18.9185 14.6967L18.945 14.6922C19.0046 14.6822 19.0574 14.6733 19.1193 14.6733C19.8397 14.58 20.6545 14.5567 21.5048 14.65C22.6267 14.7783 23.8313 15.105 25.0595 15.77C25.0595 15.77 24.1265 14.895 22.1189 14.2883L22.2842 14.1017C22.2842 14.1017 23.9021 14.0667 25.6027 15.3267C25.6027 15.3267 27.3033 18.3717 27.3033 22.1283C27.3033 22.1283 26.2995 23.82 23.6896 23.9017ZM18.5271 18.6719C17.8593 18.6719 17.332 19.2725 17.332 20.0052C17.332 20.7379 17.871 21.3385 18.5271 21.3385C19.1949 21.3385 19.7222 20.7379 19.7222 20.0052C19.7339 19.2725 19.1949 18.6719 18.5271 18.6719ZM21.6094 20.0052C21.6094 19.2725 22.1366 18.6719 22.8045 18.6719C23.4723 18.6719 23.9995 19.2725 23.9995 20.0052C23.9995 20.7379 23.4723 21.3385 22.8045 21.3385C22.1483 21.3385 21.6094 20.7379 21.6094 20.0052Z" fill="white"/>
</svg>
