<svg width="21" height="23" viewBox="0 0 21 23" fill="none" xmlns="http://www.w3.org/2000/svg">
<path d="M12 18.5C11.7239 18.5 11.5 18.7239 11.5 19C11.5 19.2761 11.7239 19.5 12 19.5V18.5ZM11.6464 3.64645C11.4512 3.84171 11.4512 4.15829 11.6464 4.35355L14.8284 7.53553C15.0237 7.7308 15.3403 7.7308 15.5355 7.53553C15.7308 7.34027 15.7308 7.02369 15.5355 6.82843L12.7071 4L15.5355 1.17157C15.7308 0.976311 15.7308 0.659728 15.5355 0.464466C15.3403 0.269204 15.0237 0.269204 14.8284 0.464466L11.6464 3.64645ZM19.5 11.5C19.5 15.3361 16.173 18.5 12 18.5V19.5C16.6635 19.5 20.5 15.9482 20.5 11.5H19.5ZM12 4.5C16.173 4.5 19.5 7.66391 19.5 11.5H20.5C20.5 7.05182 16.6635 3.5 12 3.5V4.5Z" fill="white"/>
<path d="M9 4.5C9.27614 4.5 9.5 4.27614 9.5 4C9.5 3.72386 9.27614 3.5 9 3.5V4.5ZM9.35355 19.3536C9.54882 19.1583 9.54882 18.8417 9.35355 18.6464L6.17157 15.4645C5.97631 15.2692 5.65973 15.2692 5.46447 15.4645C5.2692 15.6597 5.2692 15.9763 5.46447 16.1716L8.29289 19L5.46447 21.8284C5.2692 22.0237 5.2692 22.3403 5.46447 22.5355C5.65973 22.7308 5.97631 22.7308 6.17157 22.5355L9.35355 19.3536ZM1.5 11.5C1.5 7.66391 4.82698 4.5 9 4.5V3.5C4.33647 3.5 0.5 7.05182 0.5 11.5H1.5ZM9 18.5C4.82698 18.5 1.5 15.3361 1.5 11.5H0.5C0.5 15.9482 4.33647 19.5 9 19.5V18.5Z" fill="white"/>
</svg>
