<svg width="55" height="55" viewBox="0 0 55 55" fill="none" xmlns="http://www.w3.org/2000/svg">
<path fill-rule="evenodd" clip-rule="evenodd" d="M27.5 0C12.3122 0 0 12.3122 0 27.5C0 42.6878 12.3122 55 27.5 55C42.6878 55 55 42.6878 55 27.5C55 12.3122 42.6878 0 27.5 0ZM17.28 12H38.72C40.528 12 42 13.472 42 15.296V44L38.56 40.96L36.624 39.168L34.576 37.264L35.424 40.224H17.28C15.472 40.224 14 38.752 14 36.928V15.296C14 13.472 15.472 12 17.28 12Z" fill="white"/>
<path fill-rule="evenodd" clip-rule="evenodd" d="M33.0223 31.9999C33.0223 31.9999 32.4367 31.3345 31.9487 30.7464C34.0797 30.1738 34.8931 28.9047 34.8931 28.9047C34.2261 29.3226 33.5917 29.6166 33.0223 29.8178C32.209 30.1428 31.4281 30.3595 30.6636 30.4833C29.1019 30.7619 27.6704 30.6845 26.4504 30.4678C25.5231 30.2976 24.7261 30.05 24.0591 29.8024C23.685 29.6631 23.2783 29.4928 22.8716 29.2762C22.8472 29.2607 22.8228 29.2491 22.7984 29.2375C22.774 29.2259 22.7496 29.2143 22.7252 29.1988C22.6927 29.1833 22.6764 29.1678 22.6601 29.1524C22.3673 28.9976 22.2046 28.8893 22.2046 28.8893C22.2046 28.8893 22.9855 30.1273 25.0514 30.7154C24.5634 31.3035 23.9615 31.9999 23.9615 31.9999C20.3664 31.8916 19 29.6476 19 29.6476C19 24.6643 21.3425 20.6251 21.3425 20.6251C23.685 18.9537 25.9136 19.0001 25.9136 19.0001L26.0762 19.1858C23.1481 19.9906 21.798 21.2132 21.798 21.2132C21.798 21.2132 22.1558 21.0275 22.7577 20.7644C24.4983 20.037 25.881 19.8358 26.4504 19.7894L26.4868 19.7835C26.5689 19.7702 26.6417 19.7585 26.7269 19.7585C27.7192 19.6346 28.8417 19.6037 30.0129 19.7275C31.5583 19.8977 33.2175 20.3311 34.9093 21.2132C34.9093 21.2132 33.6242 20.0525 30.8588 19.2477L31.0865 19.0001C31.0865 19.0001 33.3151 18.9537 35.6576 20.6251C35.6576 20.6251 38.0001 24.6643 38.0001 29.6476C38.0001 29.6476 36.6174 31.8916 33.0223 31.9999ZM25.4999 25C24.6617 25 24 25.9009 24 27C24 28.0991 24.6764 29 25.4999 29C26.3381 29 26.9998 28.0991 26.9998 27C27.0145 25.9009 26.3381 25 25.4999 25ZM30 27C30 25.9009 30.6618 25 31.5 25C32.3382 25 33 25.9009 33 27C33 28.0991 32.3382 29 31.5 29C30.6765 29 30 28.0991 30 27Z" fill="white"/>
</svg>
