<svg width="55" height="55" viewBox="0 0 55 55" fill="none" xmlns="http://www.w3.org/2000/svg">
<path fill-rule="evenodd" clip-rule="evenodd" d="M27.5 0C12.3122 0 0 12.3122 0 27.5C0 42.6878 12.3122 55 27.5 55C42.6878 55 55 42.6878 55 27.5C55 12.3122 42.6878 0 27.5 0ZM27.1686 23.8039L27.11 22.8523C26.9345 20.3861 28.4757 18.1334 30.9143 17.2595C31.8117 16.9488 33.3334 16.9099 34.3284 17.1818C34.7185 17.2983 35.4599 17.6867 35.9866 18.0363L36.9426 18.6771L37.9961 18.347C38.5813 18.1722 39.3617 17.8809 39.7128 17.6867C40.0445 17.5119 40.3371 17.4148 40.3371 17.4731C40.3371 17.8032 39.6153 18.9296 39.0105 19.551C38.1911 20.4249 38.4253 20.5026 40.0835 19.92C41.0785 19.5898 41.098 19.5898 40.9029 19.9588C40.7858 20.153 40.1811 20.8327 39.5373 21.4541C38.4448 22.5222 38.3862 22.6387 38.3862 23.532C38.3862 24.9108 37.7229 27.7849 37.0596 29.3579C35.8306 32.3097 33.1968 35.3586 30.5631 36.8927C26.8564 39.0483 21.9206 39.5921 17.7652 38.3298C16.3801 37.9026 14 36.8151 14 36.6209C14 36.5626 14.7218 36.4849 15.5997 36.4655C17.4336 36.4267 19.2674 35.9218 20.8281 35.0285L21.8816 34.407L20.6721 33.9992C18.9553 33.4166 17.4141 32.0767 17.0239 30.8144C16.9068 30.4066 16.9459 30.3872 18.0384 30.3872L19.1699 30.3677L18.2139 29.9211C17.0824 29.3579 16.0484 28.4064 15.5412 27.4354C15.1705 26.7363 14.7023 24.9691 14.8389 24.8331C14.8779 24.7749 15.2876 24.8914 15.7558 25.0468C17.1019 25.5323 17.2775 25.4157 16.4972 24.6001C15.034 23.1242 14.5853 20.9298 15.2876 18.8519L15.6192 17.9198L16.9068 19.182C19.5406 21.726 22.6425 23.2407 26.1931 23.6874L27.1686 23.8039Z" fill="white"/>
</svg>
