<svg width="16000" height="19" viewBox="0 0 16000 19" fill="none" xmlns="http://www.w3.org/2000/svg">
<path d="M0 18L8.81356 0L52 0L44.0678 18L0 18Z" fill="black" stroke="black"/>
<path d="M77 18L85.8136 0L129 0L121.068 18L77 18Z" fill="black" stroke="black"/>
<path d="M154 18L162.814 0L206 0L198.068 18L154 18Z" fill="black" stroke="black"/>
<path d="M231 18L239.814 0L283 0L275.068 18L231 18Z" fill="black" stroke="black"/>
<path d="M308 18L316.814 0L360 0L352.068 18L308 18Z" fill="black" stroke="black"/>
<path d="M385 18L393.814 0L437 0L429.068 18L385 18Z" fill="black" stroke="black"/>
<path d="M462 18L470.814 0L514 0L506.068 18L462 18Z" fill="black" stroke="black"/>
<path d="M539 18L547.814 0L591 0L583.068 18L539 18Z" fill="black" stroke="black"/>
<path d="M616 18L624.814 0L668 0L660.068 18L616 18Z" fill="black" stroke="black"/>
<path d="M693 18L701.814 0L745 0L737.068 18L693 18Z" fill="black" stroke="black"/>
<path d="M770 18L778.814 0L822 0L814.068 18L770 18Z" fill="black" stroke="black"/>
<path d="M847 18L855.814 0L899 0L891.068 18L847 18Z" fill="black" stroke="black"/>
<path d="M924 18L932.814 0L976 0L968.068 18L924 18Z" fill="black" stroke="black"/>
<path d="M1001 18L1009.81 0L1053 0L1045.07 18L1001 18Z" fill="black" stroke="black"/>
<path d="M1078 18L1086.81 0L1130 0L1122.07 18L1078 18Z" fill="black" stroke="black"/>
<path d="M1155 18L1163.81 0L1207 0L1199.07 18L1155 18Z" fill="black" stroke="black"/>
<path d="M1232 18L1240.81 0L1284 0L1276.07 18L1232 18Z" fill="black" stroke="black"/>
<path d="M1309 18L1317.81 0L1361 0L1353.07 18L1309 18Z" fill="black" stroke="black"/>
<path d="M1386 18L1394.81 0L1438 0L1430.07 18L1386 18Z" fill="black" stroke="black"/>
<path d="M1463 18L1471.81 0L1515 0L1507.07 18L1463 18Z" fill="black" stroke="black"/>
<path d="M1540 18L1548.81 0L1592 0L1584.07 18L1540 18Z" fill="black" stroke="black"/>
<path d="M1617 18L1625.81 0L1669 0L1661.07 18L1617 18Z" fill="black" stroke="black"/>
<path d="M1694 18L1702.81 0L1746 0L1738.07 18L1694 18Z" fill="black" stroke="black"/>
<path d="M1771 18L1779.81 0L1823 0L1815.07 18L1771 18Z" fill="black" stroke="black"/>
<path d="M1848 18L1856.81 0L1900 0L1892.07 18L1848 18Z" fill="black" stroke="black"/>
<path d="M1925 18L1933.81 0L1977 0L1969.07 18L1925 18Z" fill="black" stroke="black"/>
<path d="M2002 18L2010.81 0L2054 0L2046.07 18L2002 18Z" fill="black" stroke="black"/>
<path d="M2079 18L2087.81 0L2131 0L2123.07 18L2079 18Z" fill="black" stroke="black"/>
<path d="M2156 18L2164.81 0L2208 0L2200.07 18L2156 18Z" fill="black" stroke="black"/>
<path d="M2233 18L2241.81 0L2285 0L2277.07 18L2233 18Z" fill="black" stroke="black"/>
<path d="M2310 18L2318.81 0L2362 0L2354.07 18L2310 18Z" fill="black" stroke="black"/>
<path d="M2387 18L2395.81 0L2439 0L2431.07 18L2387 18Z" fill="black" stroke="black"/>
<path d="M2464 18L2472.81 0L2516 0L2508.07 18L2464 18Z" fill="black" stroke="black"/>
<path d="M2541 18L2549.81 0L2593 0L2585.07 18L2541 18Z" fill="black" stroke="black"/>
<path d="M2618 18L2626.81 0L2670 0L2662.07 18L2618 18Z" fill="black" stroke="black"/>
<path d="M2695 18L2703.81 0L2747 0L2739.07 18L2695 18Z" fill="black" stroke="black"/>
<path d="M2772 18L2780.81 0L2824 0L2816.07 18L2772 18Z" fill="black" stroke="black"/>
<path d="M2849 18L2857.81 0L2901 0L2893.07 18L2849 18Z" fill="black" stroke="black"/>
<path d="M2926 18L2934.81 0L2978 0L2970.07 18L2926 18Z" fill="black" stroke="black"/>
<path d="M3003 18L3011.81 0L3055 0L3047.07 18L3003 18Z" fill="black" stroke="black"/>
<path d="M3080 18L3088.81 0L3132 0L3124.07 18L3080 18Z" fill="black" stroke="black"/>
<path d="M3157 18L3165.81 0L3209 0L3201.07 18L3157 18Z" fill="black" stroke="black"/>
<path d="M3234 18L3242.81 0L3286 0L3278.07 18L3234 18Z" fill="black" stroke="black"/>
<path d="M3311 18L3319.81 0L3363 0L3355.07 18L3311 18Z" fill="black" stroke="black"/>
<path d="M3388 18L3396.81 0L3440 0L3432.07 18L3388 18Z" fill="black" stroke="black"/>
<path d="M3465 18L3473.81 0L3517 0L3509.07 18L3465 18Z" fill="black" stroke="black"/>
<path d="M3542 18L3550.81 0L3594 0L3586.07 18L3542 18Z" fill="black" stroke="black"/>
<path d="M3619 18L3627.81 0L3671 0L3663.07 18L3619 18Z" fill="black" stroke="black"/>
<path d="M3696 18L3704.81 0L3748 0L3740.07 18L3696 18Z" fill="black" stroke="black"/>
<path d="M3773 18L3781.81 0L3825 0L3817.07 18L3773 18Z" fill="black" stroke="black"/>
<path d="M3850 18L3858.81 0L3902 0L3894.07 18L3850 18Z" fill="black" stroke="black"/>
<path d="M3927 18L3935.81 0L3979 0L3971.07 18L3927 18Z" fill="black" stroke="black"/>
<path d="M4004 18L4012.81 0L4056 0L4048.07 18L4004 18Z" fill="black" stroke="black"/>
<path d="M4081 18L4089.81 0L4133 0L4125.07 18L4081 18Z" fill="black" stroke="black"/>
<path d="M4158 18L4166.81 0L4210 0L4202.07 18L4158 18Z" fill="black" stroke="black"/>
<path d="M4235 18L4243.81 0L4287 0L4279.07 18L4235 18Z" fill="black" stroke="black"/>
<path d="M4312 18L4320.81 0L4364 0L4356.07 18L4312 18Z" fill="black" stroke="black"/>
<path d="M4389 18L4397.81 0L4441 0L4433.07 18L4389 18Z" fill="black" stroke="black"/>
<path d="M4466 18L4474.81 0L4518 0L4510.07 18L4466 18Z" fill="black" stroke="black"/>
<path d="M4543 18L4551.81 0L4595 0L4587.07 18L4543 18Z" fill="black" stroke="black"/>
<path d="M4620 18L4628.81 0L4672 0L4664.07 18L4620 18Z" fill="black" stroke="black"/>
<path d="M4697 18L4705.81 0L4749 0L4741.07 18L4697 18Z" fill="black" stroke="black"/>
<path d="M4774 18L4782.81 0L4826 0L4818.07 18L4774 18Z" fill="black" stroke="black"/>
<path d="M4851 18L4859.81 0L4903 0L4895.07 18L4851 18Z" fill="black" stroke="black"/>
<path d="M4928 18L4936.81 0L4980 0L4972.07 18L4928 18Z" fill="black" stroke="black"/>
<path d="M5005 18L5013.81 0L5057 0L5049.07 18L5005 18Z" fill="black" stroke="black"/>
<path d="M5082 18L5090.81 0L5134 0L5126.07 18L5082 18Z" fill="black" stroke="black"/>
<path d="M5159 18L5167.81 0L5211 0L5203.07 18L5159 18Z" fill="black" stroke="black"/>
<path d="M5236 18L5244.81 0L5288 0L5280.07 18L5236 18Z" fill="black" stroke="black"/>
<path d="M5313 18L5321.81 0L5365 0L5357.07 18L5313 18Z" fill="black" stroke="black"/>
<path d="M5390 18L5398.81 0L5442 0L5434.07 18L5390 18Z" fill="black" stroke="black"/>
<path d="M5467 18L5475.81 0L5519 0L5511.07 18L5467 18Z" fill="black" stroke="black"/>
<path d="M5544 18L5552.81 0L5596 0L5588.07 18L5544 18Z" fill="black" stroke="black"/>
<path d="M5621 18L5629.81 0L5673 0L5665.07 18L5621 18Z" fill="black" stroke="black"/>
<path d="M5698 18L5706.81 0L5750 0L5742.07 18L5698 18Z" fill="black" stroke="black"/>
<path d="M5775 18L5783.81 0L5827 0L5819.07 18L5775 18Z" fill="black" stroke="black"/>
<path d="M5852 18L5860.81 0L5904 0L5896.07 18L5852 18Z" fill="black" stroke="black"/>
<path d="M5929 18L5937.81 0L5981 0L5973.07 18L5929 18Z" fill="black" stroke="black"/>
<path d="M6006 18L6014.81 0L6058 0L6050.07 18L6006 18Z" fill="black" stroke="black"/>
<path d="M6083 18L6091.81 0L6135 0L6127.07 18L6083 18Z" fill="black" stroke="black"/>
<path d="M6160 18L6168.81 0L6212 0L6204.07 18L6160 18Z" fill="black" stroke="black"/>
<path d="M6237 18L6245.81 0L6289 0L6281.07 18L6237 18Z" fill="black" stroke="black"/>
<path d="M6314 18L6322.81 0L6366 0L6358.07 18L6314 18Z" fill="black" stroke="black"/>
<path d="M6391 18L6399.81 0L6443 0L6435.07 18L6391 18Z" fill="black" stroke="black"/>
<path d="M6468 18L6476.81 0L6520 0L6512.07 18L6468 18Z" fill="black" stroke="black"/>
<path d="M6545 18L6553.81 0L6597 0L6589.07 18L6545 18Z" fill="black" stroke="black"/>
<path d="M6622 18L6630.81 0L6674 0L6666.07 18L6622 18Z" fill="black" stroke="black"/>
<path d="M6699 18L6707.81 0L6751 0L6743.07 18L6699 18Z" fill="black" stroke="black"/>
<path d="M6776 18L6784.81 0L6828 0L6820.07 18L6776 18Z" fill="black" stroke="black"/>
<path d="M6853 18L6861.81 0L6905 0L6897.07 18L6853 18Z" fill="black" stroke="black"/>
<path d="M6930 18L6938.81 0L6982 0L6974.07 18L6930 18Z" fill="black" stroke="black"/>
<path d="M7007 18L7015.81 0L7059 0L7051.07 18L7007 18Z" fill="black" stroke="black"/>
<path d="M7084 18L7092.81 0L7136 0L7128.07 18L7084 18Z" fill="black" stroke="black"/>
<path d="M7161 18L7169.81 0L7213 0L7205.07 18L7161 18Z" fill="black" stroke="black"/>
<path d="M7238 18L7246.81 0L7290 0L7282.07 18L7238 18Z" fill="black" stroke="black"/>
<path d="M7315 18L7323.81 0L7367 0L7359.07 18L7315 18Z" fill="black" stroke="black"/>
<path d="M7392 18L7400.81 0L7444 0L7436.07 18L7392 18Z" fill="black" stroke="black"/>
<path d="M7469 18L7477.81 0L7521 0L7513.07 18L7469 18Z" fill="black" stroke="black"/>
<path d="M7546 18L7554.81 0L7598 0L7590.07 18L7546 18Z" fill="black" stroke="black"/>
<path d="M7623 18L7631.81 0L7675 0L7667.07 18L7623 18Z" fill="black" stroke="black"/>
<path d="M7700 18L7708.81 0L7752 0L7744.07 18L7700 18Z" fill="black" stroke="black"/>
<path d="M7777 18L7785.81 0L7829 0L7821.07 18L7777 18Z" fill="black" stroke="black"/>
<path d="M7854 18L7862.81 0L7906 0L7898.07 18L7854 18Z" fill="black" stroke="black"/>
<path d="M7931 18L7939.81 0L7983 0L7975.07 18L7931 18Z" fill="black" stroke="black"/>
<path d="M8008 18L8016.81 0L8060 0L8052.07 18L8008 18Z" fill="black" stroke="black"/>
<path d="M8085 18L8093.81 0L8137 0L8129.07 18L8085 18Z" fill="black" stroke="black"/>
<path d="M8162 18L8170.81 0L8214 0L8206.07 18L8162 18Z" fill="black" stroke="black"/>
<path d="M8239 18L8247.81 0L8291 0L8283.07 18L8239 18Z" fill="black" stroke="black"/>
<path d="M8316 18L8324.81 0L8368 0L8360.07 18L8316 18Z" fill="black" stroke="black"/>
<path d="M8393 18L8401.81 0L8445 0L8437.07 18L8393 18Z" fill="black" stroke="black"/>
<path d="M8470 18L8478.81 0L8522 0L8514.07 18L8470 18Z" fill="black" stroke="black"/>
<path d="M8547 18L8555.81 0L8599 0L8591.07 18L8547 18Z" fill="black" stroke="black"/>
<path d="M8624 18L8632.81 0L8676 0L8668.07 18L8624 18Z" fill="black" stroke="black"/>
<path d="M8701 18L8709.81 0L8753 0L8745.07 18L8701 18Z" fill="black" stroke="black"/>
<path d="M8778 18L8786.81 0L8830 0L8822.07 18L8778 18Z" fill="black" stroke="black"/>
<path d="M8855 18L8863.81 0L8907 0L8899.07 18L8855 18Z" fill="black" stroke="black"/>
<path d="M8932 18L8940.81 0L8984 0L8976.07 18L8932 18Z" fill="black" stroke="black"/>
<path d="M9009 18L9017.81 0L9061 0L9053.07 18L9009 18Z" fill="black" stroke="black"/>
<path d="M9086 18L9094.81 0L9138 0L9130.07 18L9086 18Z" fill="black" stroke="black"/>
<path d="M9163 18L9171.81 0L9215 0L9207.07 18L9163 18Z" fill="black" stroke="black"/>
<path d="M9240 18L9248.81 0L9292 0L9284.07 18L9240 18Z" fill="black" stroke="black"/>
<path d="M9317 18L9325.81 0L9369 0L9361.07 18L9317 18Z" fill="black" stroke="black"/>
<path d="M9394 18L9402.81 0L9446 0L9438.07 18L9394 18Z" fill="black" stroke="black"/>
<path d="M9471 18L9479.81 0L9523 0L9515.07 18L9471 18Z" fill="black" stroke="black"/>
<path d="M9548 18L9556.81 0L9600 0L9592.07 18L9548 18Z" fill="black" stroke="black"/>
<path d="M9625 18L9633.81 0L9677 0L9669.07 18L9625 18Z" fill="black" stroke="black"/>
<path d="M9702 18L9710.81 0L9754 0L9746.07 18L9702 18Z" fill="black" stroke="black"/>
<path d="M9779 18L9787.81 0L9831 0L9823.07 18L9779 18Z" fill="black" stroke="black"/>
<path d="M9856 18L9864.81 0L9908 0L9900.07 18L9856 18Z" fill="black" stroke="black"/>
<path d="M9933 18L9941.81 0L9985 0L9977.07 18L9933 18Z" fill="black" stroke="black"/>
<path d="M10010 18L10018.8 0L10062 0L10054.1 18L10010 18Z" fill="black" stroke="black"/>
<path d="M10087 18L10095.8 0L10139 0L10131.1 18L10087 18Z" fill="black" stroke="black"/>
<path d="M10164 18L10172.8 0L10216 0L10208.1 18L10164 18Z" fill="black" stroke="black"/>
<path d="M10241 18L10249.8 0L10293 0L10285.1 18L10241 18Z" fill="black" stroke="black"/>
<path d="M10318 18L10326.8 0L10370 0L10362.1 18L10318 18Z" fill="black" stroke="black"/>
<path d="M10395 18L10403.8 0L10447 0L10439.1 18L10395 18Z" fill="black" stroke="black"/>
<path d="M10472 18L10480.8 0L10524 0L10516.1 18L10472 18Z" fill="black" stroke="black"/>
<path d="M10549 18L10557.8 0L10601 0L10593.1 18L10549 18Z" fill="black" stroke="black"/>
<path d="M10626 18L10634.8 0L10678 0L10670.1 18L10626 18Z" fill="black" stroke="black"/>
<path d="M10703 18L10711.8 0L10755 0L10747.1 18L10703 18Z" fill="black" stroke="black"/>
<path d="M10780 18L10788.8 0L10832 0L10824.1 18L10780 18Z" fill="black" stroke="black"/>
<path d="M10857 18L10865.8 0L10909 0L10901.1 18L10857 18Z" fill="black" stroke="black"/>
<path d="M10934 18L10942.8 0L10986 0L10978.1 18L10934 18Z" fill="black" stroke="black"/>
<path d="M11011 18L11019.8 0L11063 0L11055.1 18L11011 18Z" fill="black" stroke="black"/>
<path d="M11088 18L11096.8 0L11140 0L11132.1 18L11088 18Z" fill="black" stroke="black"/>
<path d="M11165 18L11173.8 0L11217 0L11209.1 18L11165 18Z" fill="black" stroke="black"/>
<path d="M11242 18L11250.8 0L11294 0L11286.1 18L11242 18Z" fill="black" stroke="black"/>
<path d="M11319 18L11327.8 0L11371 0L11363.1 18L11319 18Z" fill="black" stroke="black"/>
<path d="M11396 18L11404.8 0L11448 0L11440.1 18L11396 18Z" fill="black" stroke="black"/>
<path d="M11473 18L11481.8 0L11525 0L11517.1 18L11473 18Z" fill="black" stroke="black"/>
<path d="M11550 18L11558.8 0L11602 0L11594.1 18L11550 18Z" fill="black" stroke="black"/>
<path d="M11627 18L11635.8 0L11679 0L11671.1 18L11627 18Z" fill="black" stroke="black"/>
<path d="M11704 18L11712.8 0L11756 0L11748.1 18L11704 18Z" fill="black" stroke="black"/>
<path d="M11781 18L11789.8 0L11833 0L11825.1 18L11781 18Z" fill="black" stroke="black"/>
<path d="M11858 18L11866.8 0L11910 0L11902.1 18L11858 18Z" fill="black" stroke="black"/>
<path d="M11935 18L11943.8 0L11987 0L11979.1 18L11935 18Z" fill="black" stroke="black"/>
<path d="M12012 18L12020.8 0L12064 0L12056.1 18L12012 18Z" fill="black" stroke="black"/>
<path d="M12089 18L12097.8 0L12141 0L12133.1 18L12089 18Z" fill="black" stroke="black"/>
<path d="M12166 18L12174.8 0L12218 0L12210.1 18L12166 18Z" fill="black" stroke="black"/>
<path d="M12243 18L12251.8 0L12295 0L12287.1 18L12243 18Z" fill="black" stroke="black"/>
<path d="M12320 18L12328.8 0L12372 0L12364.1 18L12320 18Z" fill="black" stroke="black"/>
<path d="M12397 18L12405.8 0L12449 0L12441.1 18L12397 18Z" fill="black" stroke="black"/>
<path d="M12474 18L12482.8 0L12526 0L12518.1 18L12474 18Z" fill="black" stroke="black"/>
<path d="M12551 18L12559.8 0L12603 0L12595.1 18L12551 18Z" fill="black" stroke="black"/>
<path d="M12628 18L12636.8 0L12680 0L12672.1 18L12628 18Z" fill="black" stroke="black"/>
<path d="M12705 18L12713.8 0L12757 0L12749.1 18L12705 18Z" fill="black" stroke="black"/>
<path d="M12782 18L12790.8 0L12834 0L12826.1 18L12782 18Z" fill="black" stroke="black"/>
<path d="M12859 18L12867.8 0L12911 0L12903.1 18L12859 18Z" fill="black" stroke="black"/>
<path d="M12936 18L12944.8 0L12988 0L12980.1 18L12936 18Z" fill="black" stroke="black"/>
<path d="M13013 18L13021.8 0L13065 0L13057.1 18L13013 18Z" fill="black" stroke="black"/>
<path d="M13090 18L13098.8 0L13142 0L13134.1 18L13090 18Z" fill="black" stroke="black"/>
<path d="M13167 18L13175.8 0L13219 0L13211.1 18L13167 18Z" fill="black" stroke="black"/>
<path d="M13244 18L13252.8 0L13296 0L13288.1 18L13244 18Z" fill="black" stroke="black"/>
<path d="M13321 18L13329.8 0L13373 0L13365.1 18L13321 18Z" fill="black" stroke="black"/>
<path d="M13398 18L13406.8 0L13450 0L13442.1 18L13398 18Z" fill="black" stroke="black"/>
<path d="M13475 18L13483.8 0L13527 0L13519.1 18L13475 18Z" fill="black" stroke="black"/>
<path d="M13552 18L13560.8 0L13604 0L13596.1 18L13552 18Z" fill="black" stroke="black"/>
<path d="M13629 18L13637.8 0L13681 0L13673.1 18L13629 18Z" fill="black" stroke="black"/>
<path d="M13706 18L13714.8 0L13758 0L13750.1 18L13706 18Z" fill="black" stroke="black"/>
<path d="M13783 18L13791.8 0L13835 0L13827.1 18L13783 18Z" fill="black" stroke="black"/>
<path d="M13860 18L13868.8 0L13912 0L13904.1 18L13860 18Z" fill="black" stroke="black"/>
<path d="M13937 18L13945.8 0L13989 0L13981.1 18L13937 18Z" fill="black" stroke="black"/>
<path d="M14014 18L14022.8 0L14066 0L14058.1 18L14014 18Z" fill="black" stroke="black"/>
<path d="M14091 18L14099.8 0L14143 0L14135.1 18L14091 18Z" fill="black" stroke="black"/>
<path d="M14168 18L14176.8 0L14220 0L14212.1 18L14168 18Z" fill="black" stroke="black"/>
<path d="M14245 18L14253.8 0L14297 0L14289.1 18L14245 18Z" fill="black" stroke="black"/>
<path d="M14322 18L14330.8 0L14374 0L14366.1 18L14322 18Z" fill="black" stroke="black"/>
<path d="M14399 18L14407.8 0L14451 0L14443.1 18L14399 18Z" fill="black" stroke="black"/>
<path d="M14476 18L14484.8 0L14528 0L14520.1 18L14476 18Z" fill="black" stroke="black"/>
<path d="M14553 18L14561.8 0L14605 0L14597.1 18L14553 18Z" fill="black" stroke="black"/>
<path d="M14630 18L14638.8 0L14682 0L14674.1 18L14630 18Z" fill="black" stroke="black"/>
<path d="M14707 18L14715.8 0L14759 0L14751.1 18L14707 18Z" fill="black" stroke="black"/>
<path d="M14784 18L14792.8 0L14836 0L14828.1 18L14784 18Z" fill="black" stroke="black"/>
<path d="M14861 18L14869.8 0L14913 0L14905.1 18L14861 18Z" fill="black" stroke="black"/>
<path d="M14938 18L14946.8 0L14990 0L14982.1 18L14938 18Z" fill="black" stroke="black"/>
<path d="M15015 18L15023.8 0L15067 0L15059.1 18L15015 18Z" fill="black" stroke="black"/>
<path d="M15092 18L15100.8 0L15144 0L15136.1 18L15092 18Z" fill="black" stroke="black"/>
<path d="M15169 18L15177.8 0L15221 0L15213.1 18L15169 18Z" fill="black" stroke="black"/>
<path d="M15246 18L15254.8 0L15298 0L15290.1 18L15246 18Z" fill="black" stroke="black"/>
<path d="M15323 18L15331.8 0L15375 0L15367.1 18L15323 18Z" fill="black" stroke="black"/>
<path d="M15400 18L15408.8 0L15452 0L15444.1 18L15400 18Z" fill="black" stroke="black"/>
<path d="M15477 18L15485.8 0L15529 0L15521.1 18L15477 18Z" fill="black" stroke="black"/>
<path d="M15554 18L15562.8 0L15606 0L15598.1 18L15554 18Z" fill="black" stroke="black"/>
<path d="M15631 18L15639.8 0L15683 0L15675.1 18L15631 18Z" fill="black" stroke="black"/>
<path d="M15708 18L15716.8 0L15760 0L15752.1 18L15708 18Z" fill="black" stroke="black"/>
<path d="M15785 18L15793.8 0L15837 0L15829.1 18L15785 18Z" fill="black" stroke="black"/>
<path d="M15862 18L15870.8 0L15914 0L15906.1 18L15862 18Z" fill="black" stroke="black"/>
<path d="M15939 18L15947.8 0L15991 0L15983.1 18L15939 18Z" fill="black" stroke="black"/>
</svg>
