<svg width="21" height="18" viewBox="0 0 21 18" fill="none" xmlns="http://www.w3.org/2000/svg">
<path fill-rule="evenodd" clip-rule="evenodd" d="M10.1967 4.78828L10.2422 5.56683L9.48354 5.4715C6.72193 5.10606 4.30932 3.86673 2.26087 1.7853L1.25941 0.752529L1.00146 1.51519C0.45521 3.21529 0.804204 5.01073 1.94223 6.21827C2.54917 6.8856 2.41261 6.98094 1.36563 6.58372C1.00146 6.4566 0.682815 6.36127 0.652467 6.40894C0.546252 6.52016 0.910419 7.96604 1.19872 8.53804C1.59323 9.33248 2.39744 10.111 3.27751 10.5718L4.02102 10.9372L3.14095 10.9531C2.29122 10.9531 2.26087 10.969 2.35192 11.3027C2.65539 12.3355 3.85411 13.4318 5.18939 13.9084L6.13016 14.2421L5.31078 14.7506C4.09689 15.4814 2.67056 15.8945 1.24424 15.9263C0.561425 15.9422 0 16.0058 0 16.0534C0 16.2123 1.85119 17.1021 2.92852 17.4516C6.1605 18.4844 9.99944 18.0395 12.8824 16.2759C14.9309 15.0207 16.9793 12.5261 17.9353 10.111C18.4512 8.82403 18.9671 6.47249 18.9671 5.34439C18.9671 4.6135 19.0126 4.51817 19.8623 3.64429C20.363 3.13585 20.8334 2.57974 20.9245 2.42085C21.0762 2.11896 21.061 2.11896 20.2872 2.38907C18.9974 2.86574 18.8153 2.80218 19.4526 2.08719C19.923 1.57875 20.4844 0.657196 20.4844 0.387087C20.4844 0.33942 20.2568 0.418864 19.9989 0.561863C19.7258 0.720751 19.1188 0.959083 18.6636 1.10208L17.8442 1.37219L17.1007 0.847862C16.691 0.561863 16.1144 0.244088 15.811 0.148755C15.0371 -0.0736882 13.8535 -0.0419107 13.1556 0.21231C11.2589 0.927306 10.0601 2.77041 10.1967 4.78828Z" fill="white"/>
</svg>
