<svg width="20" height="19" viewBox="0 0 20 19" fill="none" xmlns="http://www.w3.org/2000/svg">
<path fill-rule="evenodd" clip-rule="evenodd" d="M19.2738 12.7793H15.3511C13.5128 12.7793 12.0166 11.2502 12.0156 9.3713C12.0156 7.49042 13.5118 5.96034 15.3511 5.95935H19.2738C19.675 5.95935 20.0006 6.29232 20.0006 6.70259C20.0006 7.11285 19.675 7.44582 19.2738 7.44582H15.3511C14.3133 7.44681 13.4692 8.30996 13.4692 9.37031C13.4692 10.4297 14.3142 11.2928 15.3511 11.2928H19.2738C19.675 11.2928 20.0006 11.6258 20.0006 12.0361C20.0006 12.4463 19.675 12.7793 19.2738 12.7793Z" fill="white"/>
<path fill-rule="evenodd" clip-rule="evenodd" d="M15.7948 10.0521H15.4924C15.0912 10.0521 14.7656 9.71918 14.7656 9.30891C14.7656 8.89864 15.0912 8.56567 15.4924 8.56567H15.7948C16.1959 8.56567 16.5215 8.89864 16.5215 9.30891C16.5215 9.71918 16.1959 10.0521 15.7948 10.0521Z" fill="white"/>
<mask id="mask0_957_2367" style="mask-type:alpha" maskUnits="userSpaceOnUse" x="0" y="0" width="20" height="19">
<path fill-rule="evenodd" clip-rule="evenodd" d="M0 0H19.9999V19H0V0Z" fill="white"/>
</mask>
<g mask="url(#mask0_957_2367)">
<path fill-rule="evenodd" clip-rule="evenodd" d="M5.81193 1.48647C3.40867 1.48647 1.45312 3.48628 1.45312 5.94391V13.0562C1.45312 15.5138 3.40867 17.5136 5.81193 17.5136H14.1884C16.5917 17.5136 18.5463 15.5138 18.5463 13.0562V5.94391C18.5463 3.48628 16.5917 1.48647 14.1884 1.48647H5.81193ZM14.1889 19.0001H5.81238C2.60772 19.0001 0 16.3334 0 13.0562V5.94391C0 2.66574 2.60772 0 5.81238 0H14.1889C17.3935 0 20.0003 2.66574 20.0003 5.94391V13.0562C20.0003 16.3334 17.3935 19.0001 14.1889 19.0001Z" fill="white"/>
</g>
<path fill-rule="evenodd" clip-rule="evenodd" d="M10.3532 5.98367H5.12132C4.72013 5.98367 4.39453 5.6507 4.39453 5.24043C4.39453 4.83016 4.72013 4.49719 5.12132 4.49719H10.3532C10.7544 4.49719 11.08 4.83016 11.08 5.24043C11.08 5.6507 10.7544 5.98367 10.3532 5.98367Z" fill="white"/>
</svg>
